<?xml version="1.0" encoding="UTF-8"?>
<!DOCTYPE svg PUBLIC "-//W3C//DTD SVG 1.1//EN" "http://www.w3.org/Graphics/SVG/1.1/DTD/svg11.dtd">
<svg xmlns="http://www.w3.org/2000/svg" version="1.1" width="494px" height="505px" style="shape-rendering:geometricPrecision; text-rendering:geometricPrecision; image-rendering:optimizeQuality; fill-rule:evenodd; clip-rule:evenodd" xmlns:xlink="http://www.w3.org/1999/xlink">
<g><path style="opacity:0.157" fill="#220f36" d="M 333.5,142.5 C 334.167,140.833 334.833,139.167 335.5,137.5C 339.223,133.448 342.89,129.448 346.5,125.5C 348.148,124.19 349.814,122.857 351.5,121.5C 348.528,120.709 345.861,121.375 343.5,123.5C 343.167,123.5 342.833,123.5 342.5,123.5C 333.554,126.314 324.888,129.647 316.5,133.5C 307.931,136.462 299.598,139.796 291.5,143.5C 286.052,144.76 280.718,146.427 275.5,148.5C 275.833,147.833 276.167,147.167 276.5,146.5C 301.146,137.18 325.813,127.846 350.5,118.5C 353.082,118.747 353.915,120.08 353,122.5C 346.27,129.062 339.77,135.729 333.5,142.5 Z"/></g>
<g><path style="opacity:1" fill="#8e59cc" d="M 342.5,123.5 C 339.344,128.12 335.011,131.12 329.5,132.5C 327.712,131.378 325.712,131.211 323.5,132C 320.814,133.168 318.147,134.335 315.5,135.5C 315.833,134.833 316.167,134.167 316.5,133.5C 324.888,129.647 333.554,126.314 342.5,123.5 Z"/></g>
<g><path style="opacity:0.722" fill="#794c9f" d="M 346.5,125.5 C 346.179,123.952 345.179,123.285 343.5,123.5C 345.861,121.375 348.528,120.709 351.5,121.5C 349.814,122.857 348.148,124.19 346.5,125.5 Z"/></g>
<g><path style="opacity:1" fill="#ab5ce4" d="M 342.5,123.5 C 342.833,123.5 343.167,123.5 343.5,123.5C 345.179,123.285 346.179,123.952 346.5,125.5C 342.89,129.448 339.223,133.448 335.5,137.5C 334.167,138.5 332.833,139.5 331.5,140.5C 331.5,139.167 331.5,137.833 331.5,136.5C 329.362,136.703 327.695,137.703 326.5,139.5C 325.482,138.807 324.482,138.141 323.5,137.5C 325.62,136.101 327.62,134.435 329.5,132.5C 335.011,131.12 339.344,128.12 342.5,123.5 Z"/></g>
<g><path style="opacity:0.89" fill="#9066c4" d="M 316.5,133.5 C 316.167,134.167 315.833,134.833 315.5,135.5C 313.597,135.796 311.93,136.463 310.5,137.5C 304.058,139.555 297.725,141.888 291.5,144.5C 291.5,144.167 291.5,143.833 291.5,143.5C 299.598,139.796 307.931,136.462 316.5,133.5 Z"/></g>
<g><path style="opacity:1" fill="#ab5cf0" d="M 329.5,132.5 C 327.62,134.435 325.62,136.101 323.5,137.5C 322.064,137.245 320.564,136.912 319,136.5C 315.749,138.736 312.249,140.57 308.5,142C 307.167,142.667 307.167,143.333 308.5,144C 306.77,145.852 305.604,145.686 305,143.5C 304.5,144 304,144.5 303.5,145C 306.324,148.748 305.324,151.248 300.5,152.5C 300.694,149.67 301.361,147.004 302.5,144.5C 303.234,143.292 303.567,141.959 303.5,140.5C 306.346,140.448 308.68,139.448 310.5,137.5C 311.93,136.463 313.597,135.796 315.5,135.5C 318.147,134.335 320.814,133.168 323.5,132C 325.712,131.211 327.712,131.378 329.5,132.5 Z"/></g>
<g><path style="opacity:0.29" fill="#491864" d="M 335.5,137.5 C 334.833,139.167 334.167,140.833 333.5,142.5C 331.246,143.415 329.246,144.748 327.5,146.5C 327.557,145.391 327.89,144.391 328.5,143.5C 329.833,142.833 330.833,141.833 331.5,140.5C 332.833,139.5 334.167,138.5 335.5,137.5 Z"/></g>
<g><path style="opacity:1" fill="#c25efb" d="M 321.5,141.5 C 321.586,142.496 321.252,143.329 320.5,144C 322.929,144.451 323.096,145.285 321,146.5C 319.817,145.269 318.651,145.269 317.5,146.5C 316.221,149.112 314.555,151.445 312.5,153.5C 313.025,154.192 313.692,154.692 314.5,155C 313.62,156.356 313.286,157.856 313.5,159.5C 313.5,160.167 313.167,160.5 312.5,160.5C 310.167,160.5 307.833,160.5 305.5,160.5C 306.61,156.594 307.443,152.594 308,148.5C 310.91,147.55 312.077,145.55 311.5,142.5C 312.833,142.5 314.167,142.5 315.5,142.5C 316.547,137.603 318.547,137.27 321.5,141.5 Z"/></g>
<g><path style="opacity:1" fill="#c95ff5" d="M 321.5,141.5 C 323.929,141.884 326.263,142.551 328.5,143.5C 327.89,144.391 327.557,145.391 327.5,146.5C 323.5,149.833 319.833,153.5 316.5,157.5C 315.5,158.167 314.5,158.833 313.5,159.5C 313.286,157.856 313.62,156.356 314.5,155C 313.692,154.692 313.025,154.192 312.5,153.5C 314.555,151.445 316.221,149.112 317.5,146.5C 318.651,145.269 319.817,145.269 321,146.5C 323.096,145.285 322.929,144.451 320.5,144C 321.252,143.329 321.586,142.496 321.5,141.5 Z"/></g>
<g><path style="opacity:0.827" fill="#6e61a5" d="M 291.5,143.5 C 291.5,143.833 291.5,144.167 291.5,144.5C 290.508,144.328 289.842,144.662 289.5,145.5C 285.297,146.27 281.297,147.604 277.5,149.5C 274.088,150.075 271.088,151.408 268.5,153.5C 263.785,155.597 258.785,156.93 253.5,157.5C 260.676,154.201 268.009,151.201 275.5,148.5C 280.718,146.427 286.052,144.76 291.5,143.5 Z"/></g>
<g><path style="opacity:1" fill="#8062c8" d="M 289.5,145.5 C 289.579,146.93 289.246,148.264 288.5,149.5C 284.379,150.623 282.712,153.29 283.5,157.5C 279.065,157.032 276.731,159.032 276.5,163.5C 275.234,164.09 273.901,164.59 272.5,165C 271.281,167.721 269.281,169.554 266.5,170.5C 266.365,168.446 267.032,166.779 268.5,165.5C 270.194,163.139 272.194,161.139 274.5,159.5C 275.043,159.44 275.376,159.107 275.5,158.5C 274.311,157.571 272.978,157.238 271.5,157.5C 271.5,155.833 271.5,154.167 271.5,152.5C 274.313,152.975 276.313,151.975 277.5,149.5C 281.297,147.604 285.297,146.27 289.5,145.5 Z"/></g>
<g><path style="opacity:1" fill="#b45df6" d="M 323.5,137.5 C 324.482,138.141 325.482,138.807 326.5,139.5C 327.695,137.703 329.362,136.703 331.5,136.5C 331.5,137.833 331.5,139.167 331.5,140.5C 330.833,141.833 329.833,142.833 328.5,143.5C 326.263,142.551 323.929,141.884 321.5,141.5C 318.547,137.27 316.547,137.603 315.5,142.5C 314.167,142.5 312.833,142.5 311.5,142.5C 312.077,145.55 310.91,147.55 308,148.5C 307.443,152.594 306.61,156.594 305.5,160.5C 307.833,160.5 310.167,160.5 312.5,160.5C 312.5,161.167 312.5,161.833 312.5,162.5C 309.833,164.5 307.5,166.833 305.5,169.5C 304.25,169.577 303.417,170.244 303,171.5C 302.667,175.5 302.333,179.5 302,183.5C 298.367,173.067 297.867,162.733 300.5,152.5C 305.324,151.248 306.324,148.748 303.5,145C 304,144.5 304.5,144 305,143.5C 305.604,145.686 306.77,145.852 308.5,144C 307.167,143.333 307.167,142.667 308.5,142C 312.249,140.57 315.749,138.736 319,136.5C 320.564,136.912 322.064,137.245 323.5,137.5 Z"/></g>
<g><path style="opacity:0.004" fill="#100514" d="M 323.5,152.5 C 323.573,154.027 322.906,155.027 321.5,155.5C 321.427,153.973 322.094,152.973 323.5,152.5 Z"/></g>
<g><path style="opacity:1" fill="#a460ef" d="M 302.5,144.5 C 301.361,147.004 300.694,149.67 300.5,152.5C 297.867,162.733 298.367,173.067 302,183.5C 302.333,179.5 302.667,175.5 303,171.5C 303.417,170.244 304.25,169.577 305.5,169.5C 304.766,170.708 304.433,172.041 304.5,173.5C 303.518,176.962 303.185,180.629 303.5,184.5C 302.527,186.948 302.194,189.615 302.5,192.5C 301.301,189.437 299.801,186.437 298,183.5C 297.667,179.833 297.333,176.167 297,172.5C 295.729,171.117 294.229,170.117 292.5,169.5C 292.201,162.717 292.867,156.051 294.5,149.5C 295.873,149.657 297.207,149.49 298.5,149C 299.579,147.141 300.912,145.641 302.5,144.5 Z"/></g>
<g><path style="opacity:1" fill="#7661be" d="M 277.5,149.5 C 276.313,151.975 274.313,152.975 271.5,152.5C 271.5,154.167 271.5,155.833 271.5,157.5C 272.978,157.238 274.311,157.571 275.5,158.5C 275.376,159.107 275.043,159.44 274.5,159.5C 272.801,159.34 271.134,159.506 269.5,160C 265.783,163.385 261.783,166.385 257.5,169C 254.795,168.502 252.462,169.502 250.5,172C 248.482,172.505 246.482,173.005 244.5,173.5C 249.092,169.83 254.092,166.663 259.5,164C 261.749,162.255 263.416,160.088 264.5,157.5C 270.155,158.034 270.489,157.201 265.5,155C 266.737,154.768 267.737,154.268 268.5,153.5C 271.088,151.408 274.088,150.075 277.5,149.5 Z"/></g>
<g><path style="opacity:0.349" fill="#551e74" d="M 316.5,157.5 C 315.92,159.749 314.587,161.415 312.5,162.5C 312.5,161.833 312.5,161.167 312.5,160.5C 313.167,160.5 313.5,160.167 313.5,159.5C 314.5,158.833 315.5,158.167 316.5,157.5 Z"/></g>
<g><path style="opacity:1" fill="#9662e2" d="M 310.5,137.5 C 308.68,139.448 306.346,140.448 303.5,140.5C 303.567,141.959 303.234,143.292 302.5,144.5C 300.912,145.641 299.579,147.141 298.5,149C 297.207,149.49 295.873,149.657 294.5,149.5C 292.867,156.051 292.201,162.717 292.5,169.5C 293.041,172.96 293.041,176.293 292.5,179.5C 291.391,179.443 290.391,179.11 289.5,178.5C 285.22,173.595 284.554,168.262 287.5,162.5C 287.197,160.471 286.864,158.471 286.5,156.5C 290.858,153.767 292.525,149.767 291.5,144.5C 297.725,141.888 304.058,139.555 310.5,137.5 Z"/></g>
<g><path style="opacity:1" fill="#605a99" d="M 251.5,157.5 C 249.833,159.5 248.167,161.5 246.5,163.5C 240.27,163.291 234.27,164.291 228.5,166.5C 235.988,163.264 243.654,160.264 251.5,157.5 Z"/></g>
<g><path style="opacity:1" fill="#8764d7" d="M 291.5,144.5 C 292.525,149.767 290.858,153.767 286.5,156.5C 285.542,161.434 282.876,165.268 278.5,168C 279.167,168.667 279.833,169.333 280.5,170C 279.974,172.963 278.641,175.463 276.5,177.5C 276.167,177.5 275.833,177.5 275.5,177.5C 274.518,178.141 273.518,178.807 272.5,179.5C 271.893,179.376 271.56,179.043 271.5,178.5C 271.335,175.482 271.502,172.482 272,169.5C 274.48,168.193 275.98,166.193 276.5,163.5C 276.731,159.032 279.065,157.032 283.5,157.5C 282.712,153.29 284.379,150.623 288.5,149.5C 289.246,148.264 289.579,146.93 289.5,145.5C 289.842,144.662 290.508,144.328 291.5,144.5 Z"/></g>
<g><path style="opacity:1" fill="#6e5fb6" d="M 268.5,153.5 C 267.737,154.268 266.737,154.768 265.5,155C 270.489,157.201 270.155,158.034 264.5,157.5C 263.416,160.088 261.749,162.255 259.5,164C 254.092,166.663 249.092,169.83 244.5,173.5C 244.167,173.5 243.833,173.5 243.5,173.5C 242.417,173.539 241.417,173.873 240.5,174.5C 239.833,173.833 239.167,173.167 238.5,172.5C 238.089,173.262 237.923,174.262 238,175.5C 237.329,174.748 236.496,174.414 235.5,174.5C 237.144,171.996 238.644,169.329 240,166.5C 242.533,166.05 244.7,165.05 246.5,163.5C 248.167,161.5 249.833,159.5 251.5,157.5C 252.167,157.5 252.833,157.5 253.5,157.5C 258.785,156.93 263.785,155.597 268.5,153.5 Z"/></g>
<g><path style="opacity:1" fill="#7867ca" d="M 268.5,165.5 C 267.032,166.779 266.365,168.446 266.5,170.5C 264.421,171.796 262.754,173.462 261.5,175.5C 255.762,176.072 251.928,179.072 250,184.5C 246.616,181.679 243.45,181.846 240.5,185C 241.71,186.039 242.71,187.206 243.5,188.5C 240.013,187.555 238.68,185.222 239.5,181.5C 240.833,181.5 242.167,181.5 243.5,181.5C 243.5,179.5 243.5,177.5 243.5,175.5C 245.597,175.003 247.43,174.67 249,174.5C 250.878,176.698 253.045,176.864 255.5,175C 259.132,172.37 262.465,169.37 265.5,166C 266.448,165.517 267.448,165.351 268.5,165.5 Z"/></g>
<g><path style="opacity:1" fill="#675fb0" d="M 246.5,163.5 C 244.7,165.05 242.533,166.05 240,166.5C 238.644,169.329 237.144,171.996 235.5,174.5C 233.5,174.5 231.5,174.5 229.5,174.5C 229.5,175.5 229.5,176.5 229.5,177.5C 227.654,175.22 225.321,173.387 222.5,172C 224.342,169.926 226.342,168.093 228.5,166.5C 234.27,164.291 240.27,163.291 246.5,163.5 Z"/></g>
<g><path style="opacity:1" fill="#7664c4" d="M 274.5,159.5 C 272.194,161.139 270.194,163.139 268.5,165.5C 267.448,165.351 266.448,165.517 265.5,166C 262.465,169.37 259.132,172.37 255.5,175C 253.045,176.864 250.878,176.698 249,174.5C 247.43,174.67 245.597,175.003 243.5,175.5C 243.5,174.833 243.5,174.167 243.5,173.5C 243.833,173.5 244.167,173.5 244.5,173.5C 246.482,173.005 248.482,172.505 250.5,172C 252.462,169.502 254.795,168.502 257.5,169C 261.783,166.385 265.783,163.385 269.5,160C 271.134,159.506 272.801,159.34 274.5,159.5 Z"/></g>
<g><path style="opacity:0.035" fill="#1e0a32" d="M 333.5,142.5 C 330.5,146.167 327.167,149.5 323.5,152.5C 322.094,152.973 321.427,153.973 321.5,155.5C 316.504,160.664 311.671,165.997 307,171.5C 306.5,196.164 306.333,220.831 306.5,245.5C 305.833,242.833 305.167,240.167 304.5,237.5C 304.5,216.167 304.5,194.833 304.5,173.5C 304.433,172.041 304.766,170.708 305.5,169.5C 307.5,166.833 309.833,164.5 312.5,162.5C 314.587,161.415 315.92,159.749 316.5,157.5C 319.833,153.5 323.5,149.833 327.5,146.5C 329.246,144.748 331.246,143.415 333.5,142.5 Z"/></g>
<g><path style="opacity:0.255" fill="#14152b" d="M 276.5,146.5 C 276.167,147.167 275.833,147.833 275.5,148.5C 268.009,151.201 260.676,154.201 253.5,157.5C 252.833,157.5 252.167,157.5 251.5,157.5C 243.654,160.264 235.988,163.264 228.5,166.5C 224.937,167.282 221.603,168.616 218.5,170.5C 213.533,171.988 208.866,173.988 204.5,176.5C 195.285,179.286 186.619,183.119 178.5,188C 179.532,189.627 180.866,190.793 182.5,191.5C 185.194,194.86 188.194,197.86 191.5,200.5C 191.5,201.167 191.167,201.5 190.5,201.5C 185.574,198.079 181.074,194.079 177,189.5C 176.289,187.633 176.789,186.133 178.5,185C 210.629,170.768 243.295,157.935 276.5,146.5 Z"/></g>
<g><path style="opacity:0.999" fill="#3c406d" d="M 218.5,170.5 C 220.07,172.947 222.07,174.947 224.5,176.5C 218.022,175.014 215.856,177.68 218,184.5C 218.915,185.328 219.581,186.328 220,187.5C 227.778,191.407 234.611,195.74 240.5,200.5C 242.071,199.691 243.738,199.357 245.5,199.5C 247.862,202.104 250.695,204.104 254,205.5C 255.706,204.692 256.539,203.359 256.5,201.5C 257.391,202.11 258.391,202.443 259.5,202.5C 260.833,204.167 262.167,205.833 263.5,207.5C 264.11,208.391 264.443,209.391 264.5,210.5C 259.987,210.412 255.987,208.912 252.5,206C 245.31,205.235 238.976,202.568 233.5,198C 231.564,197.187 229.564,196.687 227.5,196.5C 227.047,195.542 226.381,194.708 225.5,194C 220.072,193.119 215.739,190.452 212.5,186C 213.738,186.077 214.738,185.911 215.5,185.5C 214.689,184.784 214.022,183.95 213.5,183C 214.573,181.584 214.573,180.25 213.5,179C 215.014,177.561 215.347,176.061 214.5,174.5C 211.243,175.551 207.91,176.218 204.5,176.5C 208.866,173.988 213.533,171.988 218.5,170.5 Z"/></g>
<g><path style="opacity:1" fill="#6762a4" d="M 228.5,166.5 C 226.342,168.093 224.342,169.926 222.5,172C 225.321,173.387 227.654,175.22 229.5,177.5C 231.833,180.5 234.5,183.167 237.5,185.5C 236.833,185.5 236.167,185.5 235.5,185.5C 232.149,182.152 228.482,179.152 224.5,176.5C 222.07,174.947 220.07,172.947 218.5,170.5C 221.603,168.616 224.937,167.282 228.5,166.5 Z"/></g>
<g><path style="opacity:1" fill="#8f6ae7" d="M 286.5,156.5 C 286.864,158.471 287.197,160.471 287.5,162.5C 284.554,168.262 285.22,173.595 289.5,178.5C 289.043,181.309 289.043,183.976 289.5,186.5C 287.926,186.063 286.759,185.063 286,183.5C 285.577,184.956 284.744,185.456 283.5,185C 283.377,183.211 283.377,181.378 283.5,179.5C 281.157,178.725 278.823,178.058 276.5,177.5C 278.641,175.463 279.974,172.963 280.5,170C 279.833,169.333 279.167,168.667 278.5,168C 282.876,165.268 285.542,161.434 286.5,156.5 Z"/></g>
<g><path style="opacity:1" fill="#7266c0" d="M 243.5,173.5 C 243.5,174.167 243.5,174.833 243.5,175.5C 243.5,177.5 243.5,179.5 243.5,181.5C 242.167,181.5 240.833,181.5 239.5,181.5C 238.68,185.222 240.013,187.555 243.5,188.5C 244.675,188.281 245.675,188.614 246.5,189.5C 246.942,190.739 247.609,191.739 248.5,192.5C 251.585,194.434 254.585,196.601 257.5,199C 258.305,200.113 258.972,201.279 259.5,202.5C 258.391,202.443 257.391,202.11 256.5,201.5C 250.167,196.167 243.833,190.833 237.5,185.5C 234.5,183.167 231.833,180.5 229.5,177.5C 229.5,176.5 229.5,175.5 229.5,174.5C 231.5,174.5 233.5,174.5 235.5,174.5C 236.496,174.414 237.329,174.748 238,175.5C 237.923,174.262 238.089,173.262 238.5,172.5C 239.167,173.167 239.833,173.833 240.5,174.5C 241.417,173.873 242.417,173.539 243.5,173.5 Z"/></g>
<g><path style="opacity:1" fill="#7f6bd8" d="M 276.5,163.5 C 275.98,166.193 274.48,168.193 272,169.5C 271.502,172.482 271.335,175.482 271.5,178.5C 269.179,180.09 268.179,182.423 268.5,185.5C 266.62,185.229 265.287,185.896 264.5,187.5C 262.234,187.007 260.067,187.673 258,189.5C 257.098,189.257 256.265,188.923 255.5,188.5C 256.567,186.259 258.234,184.426 260.5,183C 260.043,182.586 259.709,182.086 259.5,181.5C 260.665,180.416 261.998,179.583 263.5,179C 262.695,177.887 262.028,176.721 261.5,175.5C 262.754,173.462 264.421,171.796 266.5,170.5C 269.281,169.554 271.281,167.721 272.5,165C 273.901,164.59 275.234,164.09 276.5,163.5 Z"/></g>
<g><path style="opacity:1" fill="#a26df5" d="M 292.5,169.5 C 294.229,170.117 295.729,171.117 297,172.5C 297.333,176.167 297.667,179.833 298,183.5C 299.801,186.437 301.301,189.437 302.5,192.5C 302.5,195.833 302.5,199.167 302.5,202.5C 298.043,199.594 296.376,195.594 297.5,190.5C 296.18,188.183 294.514,186.183 292.5,184.5C 293.052,182.997 293.052,181.331 292.5,179.5C 293.041,176.293 293.041,172.96 292.5,169.5 Z"/></g>
<g><path style="opacity:1" fill="#7a6ad2" d="M 261.5,175.5 C 262.028,176.721 262.695,177.887 263.5,179C 261.998,179.583 260.665,180.416 259.5,181.5C 259.709,182.086 260.043,182.586 260.5,183C 258.234,184.426 256.567,186.259 255.5,188.5C 253.393,189.468 251.059,189.802 248.5,189.5C 248.5,190.5 248.5,191.5 248.5,192.5C 247.609,191.739 246.942,190.739 246.5,189.5C 245.675,188.614 244.675,188.281 243.5,188.5C 242.71,187.206 241.71,186.039 240.5,185C 243.45,181.846 246.616,181.679 250,184.5C 251.928,179.072 255.762,176.072 261.5,175.5 Z"/></g>
<g><path style="opacity:1" fill="#383c64" d="M 224.5,176.5 C 225.363,177.94 225.363,179.274 224.5,180.5C 226.138,181.705 226.471,183.038 225.5,184.5C 229.594,185.366 230.261,187.199 227.5,190C 228.025,190.692 228.692,191.192 229.5,191.5C 230.869,189.876 232.536,189.376 234.5,190C 235.833,191.667 237.167,193.333 238.5,195C 241.239,196.026 243.572,197.526 245.5,199.5C 243.738,199.357 242.071,199.691 240.5,200.5C 234.611,195.74 227.778,191.407 220,187.5C 219.581,186.328 218.915,185.328 218,184.5C 215.856,177.68 218.022,175.014 224.5,176.5 Z"/></g>
<g><path style="opacity:1" fill="#414473" d="M 227.5,196.5 C 226.167,196.167 224.833,195.833 223.5,195.5C 220.577,194.705 217.91,193.372 215.5,191.5C 214.914,191.709 214.414,192.043 214,192.5C 213.215,190.714 212.049,189.214 210.5,188C 207.086,187.703 203.753,187.036 200.5,186C 203.026,181.863 201.693,180.53 196.5,182C 195.781,184.556 194.114,185.723 191.5,185.5C 188.618,186.811 185.618,187.978 182.5,189C 181.402,189.77 181.402,190.603 182.5,191.5C 180.866,190.793 179.532,189.627 178.5,188C 186.619,183.119 195.285,179.286 204.5,176.5C 207.91,176.218 211.243,175.551 214.5,174.5C 215.347,176.061 215.014,177.561 213.5,179C 214.573,180.25 214.573,181.584 213.5,183C 214.022,183.95 214.689,184.784 215.5,185.5C 214.738,185.911 213.738,186.077 212.5,186C 215.739,190.452 220.072,193.119 225.5,194C 226.381,194.708 227.047,195.542 227.5,196.5 Z"/></g>
<g><path style="opacity:1" fill="#8570e5" d="M 275.5,177.5 C 276.833,182.167 276.833,186.833 275.5,191.5C 274.153,192.171 272.986,192.171 272,191.5C 270.846,192.743 269.512,193.743 268,194.5C 267.07,192.448 265.57,190.948 263.5,190C 266.402,189.081 266.735,188.248 264.5,187.5C 265.287,185.896 266.62,185.229 268.5,185.5C 268.179,182.423 269.179,180.09 271.5,178.5C 271.56,179.043 271.893,179.376 272.5,179.5C 273.518,178.807 274.518,178.141 275.5,177.5 Z"/></g>
<g><path style="opacity:1" fill="#8d72ec" d="M 275.5,177.5 C 275.833,177.5 276.167,177.5 276.5,177.5C 278.823,178.058 281.157,178.725 283.5,179.5C 283.377,181.378 283.377,183.211 283.5,185C 284.744,185.456 285.577,184.956 286,183.5C 286.759,185.063 287.926,186.063 289.5,186.5C 288.438,188.234 288.438,189.901 289.5,191.5C 289.167,191.5 288.833,191.5 288.5,191.5C 284.361,190.657 280.361,190.657 276.5,191.5C 276.167,191.5 275.833,191.5 275.5,191.5C 276.833,186.833 276.833,182.167 275.5,177.5 Z"/></g>
<g><path style="opacity:1" fill="#45497e" d="M 223.5,195.5 C 223.5,196.167 223.5,196.833 223.5,197.5C 222.167,197.5 220.833,197.5 219.5,197.5C 214.653,195.49 210.153,192.824 206,189.5C 204.323,190.516 202.657,191.516 201,192.5C 198.319,191.717 195.819,191.384 193.5,191.5C 194.483,190.15 195.816,189.15 197.5,188.5C 195.234,187.686 192.9,187.186 190.5,187C 191.056,186.617 191.389,186.117 191.5,185.5C 194.114,185.723 195.781,184.556 196.5,182C 201.693,180.53 203.026,181.863 200.5,186C 203.753,187.036 207.086,187.703 210.5,188C 212.049,189.214 213.215,190.714 214,192.5C 214.414,192.043 214.914,191.709 215.5,191.5C 217.91,193.372 220.577,194.705 223.5,195.5 Z"/></g>
<g><path style="opacity:1" fill="#44487c" d="M 191.5,185.5 C 191.389,186.117 191.056,186.617 190.5,187C 192.9,187.186 195.234,187.686 197.5,188.5C 195.816,189.15 194.483,190.15 193.5,191.5C 191.833,191.5 190.167,191.5 188.5,191.5C 188.34,193.199 188.506,194.866 189,196.5C 190.652,197.399 192.152,198.399 193.5,199.5C 196.557,200.893 198.557,203.226 199.5,206.5C 196.55,204.885 193.884,202.885 191.5,200.5C 188.194,197.86 185.194,194.86 182.5,191.5C 181.402,190.603 181.402,189.77 182.5,189C 185.618,187.978 188.618,186.811 191.5,185.5 Z"/></g>
<g><path style="opacity:1" fill="#303356" d="M 224.5,176.5 C 228.482,179.152 232.149,182.152 235.5,185.5C 238.593,188.804 241.593,192.304 244.5,196C 248.631,197.566 252.631,199.399 256.5,201.5C 256.539,203.359 255.706,204.692 254,205.5C 250.695,204.104 247.862,202.104 245.5,199.5C 243.572,197.526 241.239,196.026 238.5,195C 237.167,193.333 235.833,191.667 234.5,190C 232.536,189.376 230.869,189.876 229.5,191.5C 228.692,191.192 228.025,190.692 227.5,190C 230.261,187.199 229.594,185.366 225.5,184.5C 226.471,183.038 226.138,181.705 224.5,180.5C 225.363,179.274 225.363,177.94 224.5,176.5 Z"/></g>
<g><path style="opacity:1" fill="#484e87" d="M 219.5,197.5 C 213.505,197 207.505,196.834 201.5,197C 202.604,198.131 202.271,198.965 200.5,199.5C 198.273,198.947 195.939,198.947 193.5,199.5C 192.152,198.399 190.652,197.399 189,196.5C 188.506,194.866 188.34,193.199 188.5,191.5C 190.167,191.5 191.833,191.5 193.5,191.5C 195.819,191.384 198.319,191.717 201,192.5C 202.657,191.516 204.323,190.516 206,189.5C 210.153,192.824 214.653,195.49 219.5,197.5 Z"/></g>
<g><path style="opacity:1" fill="#8377e7" d="M 264.5,187.5 C 266.735,188.248 266.402,189.081 263.5,190C 265.57,190.948 267.07,192.448 268,194.5C 269.512,193.743 270.846,192.743 272,191.5C 272.986,192.171 274.153,192.171 275.5,191.5C 275.833,191.5 276.167,191.5 276.5,191.5C 275.058,192.82 274.392,194.486 274.5,196.5C 273.5,196.5 272.5,196.5 271.5,196.5C 269.658,194.966 268.325,195.3 267.5,197.5C 268.747,199.323 269.414,201.323 269.5,203.5C 268.5,203.5 267.5,203.5 266.5,203.5C 266.604,205.703 267.27,207.703 268.5,209.5C 266.833,208.833 265.167,208.167 263.5,207.5C 262.167,205.833 260.833,204.167 259.5,202.5C 258.972,201.279 258.305,200.113 257.5,199C 254.585,196.601 251.585,194.434 248.5,192.5C 248.5,191.5 248.5,190.5 248.5,189.5C 251.059,189.802 253.393,189.468 255.5,188.5C 256.265,188.923 257.098,189.257 258,189.5C 260.067,187.673 262.234,187.007 264.5,187.5 Z"/></g>
<g><path style="opacity:1" fill="#2f2e5f" d="M 235.5,185.5 C 236.167,185.5 236.833,185.5 237.5,185.5C 243.833,190.833 250.167,196.167 256.5,201.5C 252.631,199.399 248.631,197.566 244.5,196C 241.593,192.304 238.593,188.804 235.5,185.5 Z"/></g>
<g><path style="opacity:1" fill="#a076f8" d="M 289.5,178.5 C 290.391,179.11 291.391,179.443 292.5,179.5C 293.052,181.331 293.052,182.997 292.5,184.5C 294.514,186.183 296.18,188.183 297.5,190.5C 296.376,195.594 298.043,199.594 302.5,202.5C 303.053,212.633 301.887,212.967 299,203.5C 297.13,201.781 294.963,200.781 292.5,200.5C 292.146,198.459 292.146,196.626 292.5,195C 292.026,193.271 291.026,192.105 289.5,191.5C 288.438,189.901 288.438,188.234 289.5,186.5C 289.043,183.976 289.043,181.309 289.5,178.5 Z"/></g>
<g><path style="opacity:1" fill="#907df4" d="M 288.5,191.5 C 288.694,195.755 289.027,199.755 289.5,203.5C 286.375,204.297 283.375,204.63 280.5,204.5C 280.389,203.883 280.056,203.383 279.5,203C 280.583,201.471 281.583,199.971 282.5,198.5C 280.305,197.231 278.139,197.231 276,198.5C 274.378,197.901 272.878,197.234 271.5,196.5C 272.5,196.5 273.5,196.5 274.5,196.5C 274.392,194.486 275.058,192.82 276.5,191.5C 280.361,190.657 284.361,190.657 288.5,191.5 Z"/></g>
<g><path style="opacity:1" fill="#3e4b7b" d="M 223.5,195.5 C 224.833,195.833 226.167,196.167 227.5,196.5C 229.564,196.687 231.564,197.187 233.5,198C 238.976,202.568 245.31,205.235 252.5,206C 255.987,208.912 259.987,210.412 264.5,210.5C 267.794,211.466 270.128,213.466 271.5,216.5C 270.054,217.613 268.387,217.78 266.5,217C 259.289,211.896 251.289,208.73 242.5,207.5C 242.092,206.357 241.425,205.357 240.5,204.5C 234.848,201.832 229.182,199.498 223.5,197.5C 223.5,196.833 223.5,196.167 223.5,195.5 Z"/></g>
<g><path style="opacity:1" fill="#8c80f5" d="M 271.5,196.5 C 272.878,197.234 274.378,197.901 276,198.5C 278.139,197.231 280.305,197.231 282.5,198.5C 281.583,199.971 280.583,201.471 279.5,203C 280.056,203.383 280.389,203.883 280.5,204.5C 279.778,204.918 279.278,205.584 279,206.5C 277.989,205.663 276.822,205.33 275.5,205.5C 275.34,207.199 275.506,208.866 276,210.5C 278.988,209.817 278.822,210.484 275.5,212.5C 273.453,210.925 271.119,209.925 268.5,209.5C 267.27,207.703 266.604,205.703 266.5,203.5C 267.5,203.5 268.5,203.5 269.5,203.5C 269.414,201.323 268.747,199.323 267.5,197.5C 268.325,195.3 269.658,194.966 271.5,196.5 Z"/></g>
<g><path style="opacity:1" fill="#4a558d" d="M 219.5,197.5 C 220.833,197.5 222.167,197.5 223.5,197.5C 229.182,199.498 234.848,201.832 240.5,204.5C 241.425,205.357 242.092,206.357 242.5,207.5C 236.241,206.303 230.241,204.303 224.5,201.5C 223.702,201.957 223.369,202.624 223.5,203.5C 220.175,203.169 216.841,202.836 213.5,202.5C 210.989,202.288 208.822,202.955 207,204.5C 205.758,203.128 204.258,202.128 202.5,201.5C 201.999,203.655 200.999,205.322 199.5,206.5C 198.557,203.226 196.557,200.893 193.5,199.5C 195.939,198.947 198.273,198.947 200.5,199.5C 202.271,198.965 202.604,198.131 201.5,197C 207.505,196.834 213.505,197 219.5,197.5 Z"/></g>
<g><path style="opacity:1" fill="#515f9b" d="M 223.5,203.5 C 224.473,203.987 225.473,204.487 226.5,205C 224.392,205.36 222.392,206.027 220.5,207C 221.056,207.383 221.389,207.883 221.5,208.5C 220.279,209.028 219.113,209.695 218,210.5C 215.861,209.231 213.695,209.231 211.5,210.5C 211.855,211.522 212.522,212.189 213.5,212.5C 215.331,216.354 216.665,220.021 217.5,223.5C 211.474,217.805 205.474,212.139 199.5,206.5C 200.999,205.322 201.999,203.655 202.5,201.5C 204.258,202.128 205.758,203.128 207,204.5C 208.822,202.955 210.989,202.288 213.5,202.5C 216.841,202.836 220.175,203.169 223.5,203.5 Z"/></g>
<g><path style="opacity:1" fill="#4c5e98" d="M 242.5,207.5 C 244.277,208.6 246.277,209.434 248.5,210C 245.335,209.633 242.335,209.799 239.5,210.5C 233.49,209.906 227.49,209.24 221.5,208.5C 221.389,207.883 221.056,207.383 220.5,207C 222.392,206.027 224.392,205.36 226.5,205C 225.473,204.487 224.473,203.987 223.5,203.5C 223.369,202.624 223.702,201.957 224.5,201.5C 230.241,204.303 236.241,206.303 242.5,207.5 Z"/></g>
<g><path style="opacity:1" fill="#9387fb" d="M 289.5,203.5 C 289.786,205.277 290.453,206.944 291.5,208.5C 291.315,209.584 290.982,210.584 290.5,211.5C 289.151,211.471 287.651,212.138 286,213.5C 284.561,211.986 283.061,211.653 281.5,212.5C 282.09,213.799 283.09,214.632 284.5,215C 284.868,216.473 284.368,217.973 283,219.5C 279.954,217.617 277.454,215.284 275.5,212.5C 278.822,210.484 278.988,209.817 276,210.5C 275.506,208.866 275.34,207.199 275.5,205.5C 276.822,205.33 277.989,205.663 279,206.5C 279.278,205.584 279.778,204.918 280.5,204.5C 283.375,204.63 286.375,204.297 289.5,203.5 Z"/></g>
<g><path style="opacity:1" fill="#a47ffa" d="M 303.5,184.5 C 303.5,194.5 303.5,204.5 303.5,214.5C 302.683,216.969 302.183,219.635 302,222.5C 300.37,219.702 298.537,217.035 296.5,214.5C 295.675,213.614 294.675,213.281 293.5,213.5C 292.71,212.599 291.71,211.932 290.5,211.5C 290.982,210.584 291.315,209.584 291.5,208.5C 290.453,206.944 289.786,205.277 289.5,203.5C 289.027,199.755 288.694,195.755 288.5,191.5C 288.833,191.5 289.167,191.5 289.5,191.5C 291.026,192.105 292.026,193.271 292.5,195C 292.146,196.626 292.146,198.459 292.5,200.5C 294.963,200.781 297.13,201.781 299,203.5C 301.887,212.967 303.053,212.633 302.5,202.5C 302.5,199.167 302.5,195.833 302.5,192.5C 302.194,189.615 302.527,186.948 303.5,184.5 Z"/></g>
<g><path style="opacity:1" fill="#9c8bf0" d="M 304.5,173.5 C 304.5,194.833 304.5,216.167 304.5,237.5C 304.5,238.167 304.5,238.833 304.5,239.5C 304.167,239.5 303.833,239.5 303.5,239.5C 302.189,236.189 299.855,233.855 296.5,232.5C 287.167,224.833 277.833,217.167 268.5,209.5C 271.119,209.925 273.453,210.925 275.5,212.5C 277.454,215.284 279.954,217.617 283,219.5C 284.368,217.973 284.868,216.473 284.5,215C 283.09,214.632 282.09,213.799 281.5,212.5C 283.061,211.653 284.561,211.986 286,213.5C 287.651,212.138 289.151,211.471 290.5,211.5C 291.71,211.932 292.71,212.599 293.5,213.5C 291.656,217.397 291.323,221.397 292.5,225.5C 295.278,228.609 298.611,230.942 302.5,232.5C 303.496,226.537 303.829,220.537 303.5,214.5C 303.5,204.5 303.5,194.5 303.5,184.5C 303.185,180.629 303.518,176.962 304.5,173.5 Z"/></g>
<g><path style="opacity:1" fill="#4c6aa8" d="M 221.5,208.5 C 227.49,209.24 233.49,209.906 239.5,210.5C 249.594,211.972 258.927,215.306 267.5,220.5C 267.631,221.376 267.298,222.043 266.5,222.5C 264.49,220.829 262.157,220.162 259.5,220.5C 257.776,218.311 255.442,217.144 252.5,217C 242.19,215.994 231.856,215.161 221.5,214.5C 221.291,213.914 220.957,213.414 220.5,213C 218.236,212.764 216.069,212.264 214,211.5C 213.601,211.728 213.435,212.062 213.5,212.5C 212.522,212.189 211.855,211.522 211.5,210.5C 213.695,209.231 215.861,209.231 218,210.5C 219.113,209.695 220.279,209.028 221.5,208.5 Z"/></g>
<g><path style="opacity:1" fill="#a68dfd" d="M 293.5,213.5 C 294.675,213.281 295.675,213.614 296.5,214.5C 298.537,217.035 300.37,219.702 302,222.5C 302.183,219.635 302.683,216.969 303.5,214.5C 303.829,220.537 303.496,226.537 302.5,232.5C 298.611,230.942 295.278,228.609 292.5,225.5C 291.323,221.397 291.656,217.397 293.5,213.5 Z"/></g>
<g><path style="opacity:1" fill="#415b95" d="M 242.5,207.5 C 251.289,208.73 259.289,211.896 266.5,217C 268.387,217.78 270.054,217.613 271.5,216.5C 277.821,218.83 282.821,222.83 286.5,228.5C 287.766,229.362 289.099,230.029 290.5,230.5C 290.672,231.492 290.338,232.158 289.5,232.5C 287.129,231.009 284.462,230.009 281.5,229.5C 276.429,226.974 271.762,223.974 267.5,220.5C 258.927,215.306 249.594,211.972 239.5,210.5C 242.335,209.799 245.335,209.633 248.5,210C 246.277,209.434 244.277,208.6 242.5,207.5 Z"/></g>
<g><path style="opacity:1" fill="#5171af" d="M 259.5,220.5 C 256.193,219.949 252.86,219.616 249.5,219.5C 246.913,218.184 243.913,217.517 240.5,217.5C 233.219,217.251 226.219,218.418 219.5,221C 220.833,221.667 220.833,222.333 219.5,223C 221.041,224.371 222.375,225.871 223.5,227.5C 223.5,227.833 223.5,228.167 223.5,228.5C 221.46,226.823 219.46,225.156 217.5,223.5C 216.665,220.021 215.331,216.354 213.5,212.5C 213.435,212.062 213.601,211.728 214,211.5C 216.069,212.264 218.236,212.764 220.5,213C 220.957,213.414 221.291,213.914 221.5,214.5C 231.856,215.161 242.19,215.994 252.5,217C 255.442,217.144 257.776,218.311 259.5,220.5 Z"/></g>
<g><path style="opacity:1" fill="#4e78ba" d="M 249.5,219.5 C 245.629,219.185 241.962,219.518 238.5,220.5C 233.474,220.321 229.14,221.821 225.5,225C 226.151,226.308 225.485,227.141 223.5,227.5C 222.375,225.871 221.041,224.371 219.5,223C 220.833,222.333 220.833,221.667 219.5,221C 226.219,218.418 233.219,217.251 240.5,217.5C 243.913,217.517 246.913,218.184 249.5,219.5 Z"/></g>
<g><path style="opacity:0.216" fill="#0e1730" d="M 191.5,200.5 C 193.884,202.885 196.55,204.885 199.5,206.5C 205.474,212.139 211.474,217.805 217.5,223.5C 219.46,225.156 221.46,226.823 223.5,228.5C 225.167,230.833 227.167,232.833 229.5,234.5C 230.891,236.89 232.891,238.557 235.5,239.5C 236.5,241.167 237.833,242.5 239.5,243.5C 242.474,246.138 245.474,248.805 248.5,251.5C 249.5,253.167 250.833,254.5 252.5,255.5C 252.5,256.167 252.167,256.5 251.5,256.5C 230.842,238.508 210.509,220.175 190.5,201.5C 191.167,201.5 191.5,201.167 191.5,200.5 Z"/></g>
<g><path style="opacity:1" fill="#4d80c1" d="M 238.5,220.5 C 250.3,219.659 261.3,221.992 271.5,227.5C 260.295,223.682 248.961,222.182 237.5,223C 235.403,224.61 233.07,225.777 230.5,226.5C 231.641,227.425 231.641,228.259 230.5,229C 233.047,231.223 232.713,233.056 229.5,234.5C 227.167,232.833 225.167,230.833 223.5,228.5C 223.5,228.167 223.5,227.833 223.5,227.5C 225.485,227.141 226.151,226.308 225.5,225C 229.14,221.821 233.474,220.321 238.5,220.5 Z"/></g>
<g><path style="opacity:1" fill="#4a8ace" d="M 271.5,227.5 C 272.873,227.343 274.207,227.51 275.5,228C 279.455,230.832 283.455,233.332 287.5,235.5C 288.871,239.037 291.371,241.37 295,242.5C 295.49,243.793 295.657,245.127 295.5,246.5C 294.038,245.542 292.705,244.376 291.5,243C 290.207,242.51 288.873,242.343 287.5,242.5C 287.586,241.504 287.252,240.671 286.5,240C 280.717,237.811 275.383,234.978 270.5,231.5C 268.136,229.202 264.803,227.369 260.5,226C 253.833,225.333 247.167,225.333 240.5,226C 240.186,230.928 237.853,234.595 233.5,237C 234.756,237.417 235.423,238.25 235.5,239.5C 232.891,238.557 230.891,236.89 229.5,234.5C 232.713,233.056 233.047,231.223 230.5,229C 231.641,228.259 231.641,227.425 230.5,226.5C 233.07,225.777 235.403,224.61 237.5,223C 248.961,222.182 260.295,223.682 271.5,227.5 Z"/></g>
<g><path style="opacity:1" fill="#4777ba" d="M 238.5,220.5 C 241.962,219.518 245.629,219.185 249.5,219.5C 252.86,219.616 256.193,219.949 259.5,220.5C 262.157,220.162 264.49,220.829 266.5,222.5C 267.298,222.043 267.631,221.376 267.5,220.5C 271.762,223.974 276.429,226.974 281.5,229.5C 284.462,230.009 287.129,231.009 289.5,232.5C 289.5,233.5 289.5,234.5 289.5,235.5C 288.833,235.5 288.167,235.5 287.5,235.5C 283.455,233.332 279.455,230.832 275.5,228C 274.207,227.51 272.873,227.343 271.5,227.5C 261.3,221.992 250.3,219.659 238.5,220.5 Z"/></g>
<g><path style="opacity:1" fill="#464d96" d="M 263.5,207.5 C 265.167,208.167 266.833,208.833 268.5,209.5C 277.833,217.167 287.167,224.833 296.5,232.5C 294.297,232.396 292.297,231.73 290.5,230.5C 289.099,230.029 287.766,229.362 286.5,228.5C 282.821,222.83 277.821,218.83 271.5,216.5C 270.128,213.466 267.794,211.466 264.5,210.5C 264.443,209.391 264.11,208.391 263.5,207.5 Z"/></g>
<g><path style="opacity:1" fill="#4790d0" d="M 270.5,231.5 C 263.229,230.009 255.896,229.509 248.5,230C 242.583,230.435 238.916,233.435 237.5,239C 238.13,240.31 239.13,241.144 240.5,241.5C 240.167,242.167 239.833,242.833 239.5,243.5C 237.833,242.5 236.5,241.167 235.5,239.5C 235.423,238.25 234.756,237.417 233.5,237C 237.853,234.595 240.186,230.928 240.5,226C 247.167,225.333 253.833,225.333 260.5,226C 264.803,227.369 268.136,229.202 270.5,231.5 Z"/></g>
<g><path style="opacity:1" fill="#439bdc" d="M 270.5,231.5 C 275.383,234.978 280.717,237.811 286.5,240C 287.252,240.671 287.586,241.504 287.5,242.5C 283.426,241.364 279.426,240.031 275.5,238.5C 273.859,236.742 271.859,235.242 269.5,234C 264.524,233.027 259.524,232.194 254.5,231.5C 249.929,233.416 245.263,235.249 240.5,237C 246.579,237.53 246.579,239.03 240.5,241.5C 239.13,241.144 238.13,240.31 237.5,239C 238.916,233.435 242.583,230.435 248.5,230C 255.896,229.509 263.229,230.009 270.5,231.5 Z"/></g>
<g><path style="opacity:1" fill="#3fa1de" d="M 275.5,238.5 C 268.319,236.297 260.985,235.463 253.5,236C 249.655,237.42 246.322,239.587 243.5,242.5C 242.311,243.429 240.978,243.762 239.5,243.5C 239.833,242.833 240.167,242.167 240.5,241.5C 246.579,239.03 246.579,237.53 240.5,237C 245.263,235.249 249.929,233.416 254.5,231.5C 259.524,232.194 264.524,233.027 269.5,234C 271.859,235.242 273.859,236.742 275.5,238.5 Z"/></g>
<g><path style="opacity:1" fill="#39afe6" d="M 275.5,238.5 C 279.426,240.031 283.426,241.364 287.5,242.5C 288.781,245.234 290.947,246.9 294,247.5C 295.705,249.577 296.872,251.91 297.5,254.5C 290.988,246.974 282.654,242.64 272.5,241.5C 265.145,238.671 257.812,238.838 250.5,242C 249.978,242.561 249.645,243.228 249.5,244C 251.1,245.123 252.1,246.623 252.5,248.5C 250.924,249.143 249.59,250.143 248.5,251.5C 245.474,248.805 242.474,246.138 239.5,243.5C 240.978,243.762 242.311,243.429 243.5,242.5C 246.322,239.587 249.655,237.42 253.5,236C 260.985,235.463 268.319,236.297 275.5,238.5 Z"/></g>
<g><path style="opacity:1" fill="#566dc1" d="M 290.5,230.5 C 292.297,231.73 294.297,232.396 296.5,232.5C 299.855,233.855 302.189,236.189 303.5,239.5C 303.5,240.167 303.5,240.833 303.5,241.5C 302.732,240.737 302.232,239.737 302,238.5C 301.667,238.833 301.333,239.167 301,239.5C 300.692,238.692 300.192,238.025 299.5,237.5C 298.638,238.766 297.971,240.099 297.5,241.5C 294.833,239.5 292.167,237.5 289.5,235.5C 289.5,234.5 289.5,233.5 289.5,232.5C 290.338,232.158 290.672,231.492 290.5,230.5 Z"/></g>
<g><path style="opacity:1" fill="#2ebcea" d="M 272.5,241.5 C 272.389,242.117 272.056,242.617 271.5,243C 275.992,243.954 279.992,245.787 283.5,248.5C 276.396,246.973 269.396,245.306 262.5,243.5C 258.264,243.412 254.93,245.079 252.5,248.5C 252.1,246.623 251.1,245.123 249.5,244C 249.645,243.228 249.978,242.561 250.5,242C 257.812,238.838 265.145,238.671 272.5,241.5 Z"/></g>
<g><path style="opacity:1" fill="#40bcf1" d="M 272.5,241.5 C 282.654,242.64 290.988,246.974 297.5,254.5C 299.614,256.019 301.28,258.019 302.5,260.5C 303.452,258.955 303.785,257.288 303.5,255.5C 303.833,255.5 304.167,255.5 304.5,255.5C 304.5,258.833 304.5,262.167 304.5,265.5C 304.5,267.5 304.5,269.5 304.5,271.5C 304.167,271.5 303.833,271.5 303.5,271.5C 303.266,267.654 301.599,264.654 298.5,262.5C 296.817,258.306 294.484,254.473 291.5,251C 289.091,249.293 286.425,248.46 283.5,248.5C 279.992,245.787 275.992,243.954 271.5,243C 272.056,242.617 272.389,242.117 272.5,241.5 Z"/></g>
<g><path style="opacity:1" fill="#5877db" d="M 303.5,241.5 C 303.665,245.182 303.499,248.848 303,252.5C 299.554,249.675 297.721,246.008 297.5,241.5C 297.971,240.099 298.638,238.766 299.5,237.5C 300.192,238.025 300.692,238.692 301,239.5C 301.333,239.167 301.667,238.833 302,238.5C 302.232,239.737 302.732,240.737 303.5,241.5 Z"/></g>
<g><path style="opacity:1" fill="#2fc7f1" d="M 283.5,248.5 C 286.425,248.46 289.091,249.293 291.5,251C 294.484,254.473 296.817,258.306 298.5,262.5C 295.248,260.416 292.915,257.582 291.5,254C 285.317,251.829 278.984,250.162 272.5,249C 272.833,248.667 273.167,248.333 273.5,248C 271.341,247.088 269.175,246.255 267,245.5C 262.899,246.637 258.732,247.637 254.5,248.5C 255,254.246 257.667,258.58 262.5,261.5C 262.167,262.167 261.833,262.833 261.5,263.5C 258.5,260.833 255.5,258.167 252.5,255.5C 250.833,254.5 249.5,253.167 248.5,251.5C 249.59,250.143 250.924,249.143 252.5,248.5C 254.93,245.079 258.264,243.412 262.5,243.5C 269.396,245.306 276.396,246.973 283.5,248.5 Z"/></g>
<g><path style="opacity:1" fill="#27d2f5" d="M 298.5,262.5 C 301.599,264.654 303.266,267.654 303.5,271.5C 303.5,274.5 303.5,277.5 303.5,280.5C 302.833,280.5 302.5,280.167 302.5,279.5C 301.279,273.721 298.946,268.387 295.5,263.5C 293.745,260.564 291.745,257.731 289.5,255C 279.952,252.311 270.285,251.478 260.5,252.5C 260.67,253.822 260.337,254.989 259.5,256C 261.349,257.093 263.016,258.426 264.5,260C 263.956,260.717 263.289,261.217 262.5,261.5C 257.667,258.58 255,254.246 254.5,248.5C 258.732,247.637 262.899,246.637 267,245.5C 269.175,246.255 271.341,247.088 273.5,248C 273.167,248.333 272.833,248.667 272.5,249C 278.984,250.162 285.317,251.829 291.5,254C 292.915,257.582 295.248,260.416 298.5,262.5 Z"/></g>
<g><path style="opacity:1" fill="#48a6f2" d="M 287.5,242.5 C 288.873,242.343 290.207,242.51 291.5,243C 292.705,244.376 294.038,245.542 295.5,246.5C 297.442,249.98 300.108,252.98 303.5,255.5C 303.785,257.288 303.452,258.955 302.5,260.5C 301.28,258.019 299.614,256.019 297.5,254.5C 296.872,251.91 295.705,249.577 294,247.5C 290.947,246.9 288.781,245.234 287.5,242.5 Z"/></g>
<g><path style="opacity:1" fill="#568adf" d="M 287.5,235.5 C 288.167,235.5 288.833,235.5 289.5,235.5C 292.167,237.5 294.833,239.5 297.5,241.5C 297.721,246.008 299.554,249.675 303,252.5C 303.499,248.848 303.665,245.182 303.5,241.5C 303.5,240.833 303.5,240.167 303.5,239.5C 303.833,239.5 304.167,239.5 304.5,239.5C 304.5,244.833 304.5,250.167 304.5,255.5C 304.167,255.5 303.833,255.5 303.5,255.5C 300.108,252.98 297.442,249.98 295.5,246.5C 295.657,245.127 295.49,243.793 295,242.5C 291.371,241.37 288.871,239.037 287.5,235.5 Z"/></g>
<g><path style="opacity:1" fill="#23dbf7" d="M 295.5,263.5 C 292.806,261.486 289.806,259.986 286.5,259C 279.833,258.333 273.167,258.333 266.5,259C 263.83,263.537 265.163,266.37 270.5,267.5C 271.354,268.632 271.354,269.965 270.5,271.5C 266.9,269.57 263.9,266.903 261.5,263.5C 261.833,262.833 262.167,262.167 262.5,261.5C 263.289,261.217 263.956,260.717 264.5,260C 263.016,258.426 261.349,257.093 259.5,256C 260.337,254.989 260.67,253.822 260.5,252.5C 270.285,251.478 279.952,252.311 289.5,255C 291.745,257.731 293.745,260.564 295.5,263.5 Z"/></g>
<g><path style="opacity:1" fill="#20e4fb" d="M 295.5,263.5 C 298.946,268.387 301.279,273.721 302.5,279.5C 300.207,275.595 297.874,271.595 295.5,267.5C 292.838,265.992 290.338,264.325 288,262.5C 286.001,263.854 284.168,263.687 282.5,262C 279.5,261.333 276.5,261.333 273.5,262C 271.658,263.346 270.658,265.179 270.5,267.5C 265.163,266.37 263.83,263.537 266.5,259C 273.167,258.333 279.833,258.333 286.5,259C 289.806,259.986 292.806,261.486 295.5,263.5 Z"/></g>
<g><path style="opacity:1" fill="#27e8f8" d="M 302.5,279.5 C 302.5,280.167 302.833,280.5 303.5,280.5C 303.666,286.509 303.499,292.509 303,298.5C 302.667,298.833 302.333,299.167 302,299.5C 301.082,297.624 299.582,296.624 297.5,296.5C 293.209,293.877 289.543,290.544 286.5,286.5C 288.435,287.15 290.435,287.483 292.5,287.5C 293.791,288.542 293.791,289.708 292.5,291C 293.7,292.031 295.034,292.865 296.5,293.5C 297.955,292.61 299.289,292.61 300.5,293.5C 302.129,290.734 302.795,287.734 302.5,284.5C 299.989,280.138 297.656,275.638 295.5,271C 291.275,268.47 286.775,266.637 282,265.5C 279.547,265.059 277.047,265.559 274.5,267C 275.439,270.785 277.439,273.952 280.5,276.5C 279.754,277.736 279.421,279.07 279.5,280.5C 276.167,277.833 273.167,274.833 270.5,271.5C 271.354,269.965 271.354,268.632 270.5,267.5C 270.658,265.179 271.658,263.346 273.5,262C 276.5,261.333 279.5,261.333 282.5,262C 284.168,263.687 286.001,263.854 288,262.5C 290.338,264.325 292.838,265.992 295.5,267.5C 297.874,271.595 300.207,275.595 302.5,279.5 Z"/></g>
<g><path style="opacity:0.275" fill="#081e40" d="M 304.5,237.5 C 305.167,240.167 305.833,242.833 306.5,245.5C 306.5,252.167 306.5,258.833 306.5,265.5C 305.833,265.5 305.167,265.5 304.5,265.5C 304.5,262.167 304.5,258.833 304.5,255.5C 304.5,250.167 304.5,244.833 304.5,239.5C 304.5,238.833 304.5,238.167 304.5,237.5 Z"/></g>
<g><path style="opacity:0.176" fill="#101c33" d="M 268.5,322.5 C 267.833,321.833 267.167,321.167 266.5,320.5C 266.167,319.5 265.5,318.833 264.5,318.5C 263.551,316.223 262.218,314.223 260.5,312.5C 259.214,309.883 257.547,307.55 255.5,305.5C 254.99,302.326 253.323,299.992 250.5,298.5C 245.746,290.654 240.746,282.988 235.5,275.5C 233.168,270.836 230.335,266.502 227,262.5C 223.932,265.639 221.098,268.972 218.5,272.5C 216.857,275.47 214.857,278.137 212.5,280.5C 210.147,282.86 208.147,285.527 206.5,288.5C 200.604,295.277 194.938,302.277 189.5,309.5C 186.664,312.513 184.331,315.846 182.5,319.5C 178.785,322.607 175.785,326.273 173.5,330.5C 171.413,331.585 170.08,333.251 169.5,335.5C 169.167,335.5 168.833,335.5 168.5,335.5C 167.833,335.5 167.167,335.5 166.5,335.5C 184.9,312.378 203.066,289.044 221,265.5C 222.743,263.415 224.743,261.748 227,260.5C 228.89,260.785 230.223,261.785 231,263.5C 242.215,282.044 254.215,300.044 267,317.5C 268.009,319.025 268.509,320.692 268.5,322.5 Z"/></g>
<g><path style="opacity:1" fill="#4664a0" d="M 235.5,275.5 C 235.631,276.239 235.464,276.906 235,277.5C 232.649,276.286 230.149,275.452 227.5,275C 226.195,272.852 224.362,271.352 222,270.5C 220.905,271.693 220.072,273.027 219.5,274.5C 218.662,274.158 218.328,273.492 218.5,272.5C 221.098,268.972 223.932,265.639 227,262.5C 230.335,266.502 233.168,270.836 235.5,275.5 Z"/></g>
<g><path style="opacity:1" fill="#4e74b2" d="M 235.5,275.5 C 240.746,282.988 245.746,290.654 250.5,298.5C 240.709,289.774 230.375,281.774 219.5,274.5C 220.072,273.027 220.905,271.693 222,270.5C 224.362,271.352 226.195,272.852 227.5,275C 230.149,275.452 232.649,276.286 235,277.5C 235.464,276.906 235.631,276.239 235.5,275.5 Z"/></g>
<g><path style="opacity:1" fill="#2b4b7b" d="M 218.5,272.5 C 218.328,273.492 218.662,274.158 219.5,274.5C 230.375,281.774 240.709,289.774 250.5,298.5C 253.323,299.992 254.99,302.326 255.5,305.5C 253.5,303.833 251.5,302.167 249.5,300.5C 241.804,295.969 234.471,290.803 227.5,285C 223.136,285.427 219.302,283.927 216,280.5C 215.055,280.905 214.388,281.572 214,282.5C 213.722,281.584 213.222,280.918 212.5,280.5C 214.857,278.137 216.857,275.47 218.5,272.5 Z"/></g>
<g><path style="opacity:1" fill="#3e83c0" d="M 239.5,296.5 C 232.101,294.721 224.601,293.387 217,292.5C 212.692,293.485 208.525,293.818 204.5,293.5C 205.942,292.18 206.608,290.514 206.5,288.5C 209.132,286.887 211.798,285.22 214.5,283.5C 218.5,285.167 222.5,286.833 226.5,288.5C 227.287,289.242 227.953,290.075 228.5,291C 232.222,292.861 235.889,294.694 239.5,296.5 Z"/></g>
<g><path style="opacity:1" fill="#36679e" d="M 212.5,280.5 C 213.222,280.918 213.722,281.584 214,282.5C 214.388,281.572 215.055,280.905 216,280.5C 219.302,283.927 223.136,285.427 227.5,285C 234.471,290.803 241.804,295.969 249.5,300.5C 247.442,299.067 245.108,298.4 242.5,298.5C 242.027,297.094 241.027,296.427 239.5,296.5C 235.889,294.694 232.222,292.861 228.5,291C 227.953,290.075 227.287,289.242 226.5,288.5C 222.5,286.833 218.5,285.167 214.5,283.5C 211.798,285.22 209.132,286.887 206.5,288.5C 208.147,285.527 210.147,282.86 212.5,280.5 Z"/></g>
<g><path style="opacity:1" fill="#4a8dc0" d="M 206.5,288.5 C 206.608,290.514 205.942,292.18 204.5,293.5C 204.107,295.284 203.441,296.95 202.5,298.5C 198.784,299.887 196.45,302.554 195.5,306.5C 193.472,307.549 191.472,308.549 189.5,309.5C 194.938,302.277 200.604,295.277 206.5,288.5 Z"/></g>
<g><path style="opacity:1" fill="#3d99d6" d="M 239.5,296.5 C 241.027,296.427 242.027,297.094 242.5,298.5C 242.833,299.167 243.167,299.833 243.5,300.5C 242.833,300.5 242.167,300.5 241.5,300.5C 240.158,299.207 238.491,298.374 236.5,298C 225.979,296.585 215.813,297.752 206,301.5C 204.777,300.643 203.611,299.643 202.5,298.5C 203.441,296.95 204.107,295.284 204.5,293.5C 208.525,293.818 212.692,293.485 217,292.5C 224.601,293.387 232.101,294.721 239.5,296.5 Z"/></g>
<g><path style="opacity:0.063" fill="#082633" d="M 252.5,255.5 C 255.5,258.167 258.5,260.833 261.5,263.5C 263.9,266.903 266.9,269.57 270.5,271.5C 273.167,274.833 276.167,277.833 279.5,280.5C 281.607,282.727 283.94,284.727 286.5,286.5C 289.543,290.544 293.209,293.877 297.5,296.5C 299.17,299.002 301.336,301.002 304,302.5C 304.5,292.172 304.666,281.839 304.5,271.5C 304.5,269.5 304.5,267.5 304.5,265.5C 305.167,265.5 305.833,265.5 306.5,265.5C 306.496,277.85 306.496,290.183 306.5,302.5C 306.113,303.72 305.28,304.387 304,304.5C 290.549,293.386 277.382,281.886 264.5,270C 259.963,265.631 255.63,261.131 251.5,256.5C 252.167,256.5 252.5,256.167 252.5,255.5 Z"/></g>
<g><path style="opacity:0.688" fill="#59c0d2" d="M 303.5,271.5 C 303.833,271.5 304.167,271.5 304.5,271.5C 304.666,281.839 304.5,292.172 304,302.5C 301.336,301.002 299.17,299.002 297.5,296.5C 299.582,296.624 301.082,297.624 302,299.5C 302.333,299.167 302.667,298.833 303,298.5C 303.499,292.509 303.666,286.509 303.5,280.5C 303.5,277.5 303.5,274.5 303.5,271.5 Z"/></g>
<g><path style="opacity:1" fill="#1df5fd" d="M 302.5,284.5 C 302.795,287.734 302.129,290.734 300.5,293.5C 299.289,292.61 297.955,292.61 296.5,293.5C 295.034,292.865 293.7,292.031 292.5,291C 293.791,289.708 293.791,288.542 292.5,287.5C 290.924,285.269 288.757,283.603 286,282.5C 287.621,278.215 286.121,276.215 281.5,276.5C 281.185,274.774 281.019,273.107 281,271.5C 282.789,271.623 284.622,271.623 286.5,271.5C 289.263,273.597 292.263,275.263 295.5,276.5C 297.39,279.654 299.723,282.321 302.5,284.5 Z"/></g>
<g><path style="opacity:1" fill="#1feffc" d="M 302.5,284.5 C 299.723,282.321 297.39,279.654 295.5,276.5C 292.263,275.263 289.263,273.597 286.5,271.5C 284.622,271.623 282.789,271.623 281,271.5C 281.019,273.107 281.185,274.774 281.5,276.5C 286.121,276.215 287.621,278.215 286,282.5C 288.757,283.603 290.924,285.269 292.5,287.5C 290.435,287.483 288.435,287.15 286.5,286.5C 283.94,284.727 281.607,282.727 279.5,280.5C 279.421,279.07 279.754,277.736 280.5,276.5C 277.439,273.952 275.439,270.785 274.5,267C 277.047,265.559 279.547,265.059 282,265.5C 286.775,266.637 291.275,268.47 295.5,271C 297.656,275.638 299.989,280.138 302.5,284.5 Z"/></g>
<g><path style="opacity:1" fill="#30b0e3" d="M 241.5,300.5 C 242.167,300.5 242.833,300.5 243.5,300.5C 246.985,301.908 249.652,304.241 251.5,307.5C 253.78,308.136 255.78,309.136 257.5,310.5C 257.565,310.938 257.399,311.272 257,311.5C 252.595,309.544 248.428,307.544 244.5,305.5C 244.047,304.542 243.381,303.708 242.5,303C 234.152,301.197 225.819,301.197 217.5,303C 212.583,305.272 207.583,307.105 202.5,308.5C 203.794,306.704 204.794,304.704 205.5,302.5C 206.086,302.709 206.586,303.043 207,303.5C 209.107,301.667 211.607,300.501 214.5,300C 219.385,299.438 224.051,298.938 228.5,298.5C 232.769,299.538 237.102,300.205 241.5,300.5 Z"/></g>
<g><path style="opacity:1" fill="#2687b1" d="M 242.5,298.5 C 245.108,298.4 247.442,299.067 249.5,300.5C 251.5,302.167 253.5,303.833 255.5,305.5C 257.547,307.55 259.214,309.883 260.5,312.5C 259.5,311.833 258.5,311.167 257.5,310.5C 255.78,309.136 253.78,308.136 251.5,307.5C 249.652,304.241 246.985,301.908 243.5,300.5C 243.167,299.833 242.833,299.167 242.5,298.5 Z"/></g>
<g><path style="opacity:1" fill="#3ea5e2" d="M 241.5,300.5 C 237.102,300.205 232.769,299.538 228.5,298.5C 224.051,298.938 219.385,299.438 214.5,300C 211.607,300.501 209.107,301.667 207,303.5C 206.586,303.043 206.086,302.709 205.5,302.5C 204.794,304.704 203.794,306.704 202.5,308.5C 199.359,311.153 195.859,313.153 192,314.5C 191.586,314.043 191.086,313.709 190.5,313.5C 188.079,315.934 185.412,317.934 182.5,319.5C 184.331,315.846 186.664,312.513 189.5,309.5C 191.472,308.549 193.472,307.549 195.5,306.5C 196.45,302.554 198.784,299.887 202.5,298.5C 203.611,299.643 204.777,300.643 206,301.5C 215.813,297.752 225.979,296.585 236.5,298C 238.491,298.374 240.158,299.207 241.5,300.5 Z"/></g>
<g><path style="opacity:1" fill="#29c4ee" d="M 241.5,304.5 C 233.747,305.039 226.08,306.205 218.5,308C 214.193,309.408 210.193,311.408 206.5,314C 199.283,315.237 192.95,318.237 187.5,323C 186.207,323.49 184.873,323.657 183.5,323.5C 183.5,325.167 183.5,326.833 183.5,328.5C 180.5,328.833 179.167,327.5 179.5,324.5C 193.909,315.379 209.576,308.546 226.5,304C 231.684,303.184 236.684,303.35 241.5,304.5 Z"/></g>
<g><path style="opacity:1" fill="#31baea" d="M 244.5,305.5 C 243.391,305.443 242.391,305.11 241.5,304.5C 236.684,303.35 231.684,303.184 226.5,304C 209.576,308.546 193.909,315.379 179.5,324.5C 178.132,326.564 177.132,328.898 176.5,331.5C 175.787,329.565 174.787,329.232 173.5,330.5C 175.785,326.273 178.785,322.607 182.5,319.5C 185.412,317.934 188.079,315.934 190.5,313.5C 191.086,313.709 191.586,314.043 192,314.5C 195.859,313.153 199.359,311.153 202.5,308.5C 207.583,307.105 212.583,305.272 217.5,303C 225.819,301.197 234.152,301.197 242.5,303C 243.381,303.708 244.047,304.542 244.5,305.5 Z"/></g>
<g><path style="opacity:1" fill="#1ed5f2" d="M 243.5,309.5 C 239.154,309.334 234.821,309.501 230.5,310C 221.733,313.087 213.067,316.254 204.5,319.5C 205.456,317.484 206.79,315.651 208.5,314C 217.58,309.364 227.247,306.864 237.5,306.5C 239.167,306.667 240.833,306.833 242.5,307C 243.252,307.671 243.586,308.504 243.5,309.5 Z"/></g>
<g><path style="opacity:1" fill="#22dcf5" d="M 243.5,309.5 C 248.757,309.756 253.757,310.923 258.5,313C 259.881,315.521 261.881,317.355 264.5,318.5C 265.5,318.833 266.167,319.5 266.5,320.5C 264.954,322.931 262.621,324.264 259.5,324.5C 259.082,323.778 258.416,323.278 257.5,323C 260.192,320.368 259.859,318.034 256.5,316C 253.543,315.721 250.877,314.887 248.5,313.5C 245.58,312.649 241.913,311.982 237.5,311.5C 222.532,314.429 208.532,319.596 195.5,327C 192.832,327.567 190.166,328.067 187.5,328.5C 187.771,330.38 187.104,331.713 185.5,332.5C 185.682,330.409 185.348,328.409 184.5,326.5C 186.413,325.949 188.413,325.782 190.5,326C 191.167,325 191.833,324 192.5,323C 196.27,320.98 200.27,319.814 204.5,319.5C 213.067,316.254 221.733,313.087 230.5,310C 234.821,309.501 239.154,309.334 243.5,309.5 Z"/></g>
<g><path style="opacity:1" fill="#19e3f9" d="M 248.5,313.5 C 240.8,314.648 233.133,315.981 225.5,317.5C 219.641,319.356 213.975,321.69 208.5,324.5C 207.914,324.291 207.414,323.957 207,323.5C 204.325,325.158 201.825,326.991 199.5,329C 194.308,329.661 189.641,331.495 185.5,334.5C 184.833,334.167 184.167,333.833 183.5,333.5C 180.764,336.18 178.098,338.847 175.5,341.5C 174.583,342.127 173.583,342.461 172.5,342.5C 172.5,341.833 172.5,341.167 172.5,340.5C 172.5,340.167 172.5,339.833 172.5,339.5C 173.199,337.118 174.533,335.118 176.5,333.5C 177.086,333.709 177.586,334.043 178,334.5C 179.672,330.216 182.172,329.549 185.5,332.5C 187.104,331.713 187.771,330.38 187.5,328.5C 190.166,328.067 192.832,327.567 195.5,327C 208.532,319.596 222.532,314.429 237.5,311.5C 241.913,311.982 245.58,312.649 248.5,313.5 Z"/></g>
<g><path style="opacity:1" fill="#22eafb" d="M 248.5,313.5 C 250.877,314.887 253.543,315.721 256.5,316C 259.859,318.034 260.192,320.368 257.5,323C 258.416,323.278 259.082,323.778 259.5,324.5C 257.11,326.02 254.443,327.02 251.5,327.5C 251.167,325.5 250.833,323.5 250.5,321.5C 252.833,321.5 255.167,321.5 257.5,321.5C 257.64,319.876 256.973,318.71 255.5,318C 252.592,317.007 249.592,316.507 246.5,316.5C 243.794,316.952 241.294,316.952 239,316.5C 235.725,318.271 232.225,319.271 228.5,319.5C 227.5,318.833 226.5,318.167 225.5,317.5C 233.133,315.981 240.8,314.648 248.5,313.5 Z"/></g>
<g><path style="opacity:1" fill="#23ccf1" d="M 241.5,304.5 C 242.391,305.11 243.391,305.443 244.5,305.5C 248.428,307.544 252.595,309.544 257,311.5C 257.399,311.272 257.565,310.938 257.5,310.5C 258.5,311.167 259.5,311.833 260.5,312.5C 262.218,314.223 263.551,316.223 264.5,318.5C 261.881,317.355 259.881,315.521 258.5,313C 253.757,310.923 248.757,309.756 243.5,309.5C 243.586,308.504 243.252,307.671 242.5,307C 240.833,306.833 239.167,306.667 237.5,306.5C 227.247,306.864 217.58,309.364 208.5,314C 206.79,315.651 205.456,317.484 204.5,319.5C 200.27,319.814 196.27,320.98 192.5,323C 191.833,324 191.167,325 190.5,326C 188.413,325.782 186.413,325.949 184.5,326.5C 185.348,328.409 185.682,330.409 185.5,332.5C 182.172,329.549 179.672,330.216 178,334.5C 177.586,334.043 177.086,333.709 176.5,333.5C 174.533,335.118 173.199,337.118 172.5,339.5C 170.738,338.738 169.738,337.404 169.5,335.5C 170.08,333.251 171.413,331.585 173.5,330.5C 174.787,329.232 175.787,329.565 176.5,331.5C 177.132,328.898 178.132,326.564 179.5,324.5C 179.167,327.5 180.5,328.833 183.5,328.5C 183.5,326.833 183.5,325.167 183.5,323.5C 184.873,323.657 186.207,323.49 187.5,323C 192.95,318.237 199.283,315.237 206.5,314C 210.193,311.408 214.193,309.408 218.5,308C 226.08,306.205 233.747,305.039 241.5,304.5 Z"/></g>
<g><path style="opacity:1" fill="#23f0fc" d="M 251.5,327.5 C 239.719,333.058 227.719,338.058 215.5,342.5C 214.833,342.5 214.167,342.5 213.5,342.5C 214.23,340.955 215.563,340.122 217.5,340C 216.833,339.667 216.167,339.333 215.5,339C 220.695,337.088 226.029,335.588 231.5,334.5C 233.395,332.955 235.395,331.455 237.5,330C 234.438,329.259 231.438,329.425 228.5,330.5C 227.614,329.675 227.281,328.675 227.5,327.5C 223.058,327.225 219.058,328.391 215.5,331C 216.833,331.333 218.167,331.667 219.5,332C 215.276,334.59 210.776,335.09 206,333.5C 204.166,335.443 202.166,335.776 200,334.5C 198.259,335.758 196.426,336.758 194.5,337.5C 194.426,335.589 193.426,334.422 191.5,334C 197.496,334.145 202.329,331.978 206,327.5C 207.726,328.576 209.559,328.743 211.5,328C 215.756,325.52 220.089,323.186 224.5,321C 223.833,320.667 223.167,320.333 222.5,320C 224.473,319.505 226.473,319.338 228.5,319.5C 232.225,319.271 235.725,318.271 239,316.5C 241.294,316.952 243.794,316.952 246.5,316.5C 249.592,316.507 252.592,317.007 255.5,318C 256.973,318.71 257.64,319.876 257.5,321.5C 255.167,321.5 252.833,321.5 250.5,321.5C 250.833,323.5 251.167,325.5 251.5,327.5 Z"/></g>
<g><path style="opacity:1" fill="#1aeafb" d="M 225.5,317.5 C 226.5,318.167 227.5,318.833 228.5,319.5C 226.473,319.338 224.473,319.505 222.5,320C 223.167,320.333 223.833,320.667 224.5,321C 220.089,323.186 215.756,325.52 211.5,328C 209.559,328.743 207.726,328.576 206,327.5C 202.329,331.978 197.496,334.145 191.5,334C 193.426,334.422 194.426,335.589 194.5,337.5C 193.5,337.5 192.5,337.5 191.5,337.5C 191.134,336.305 190.301,335.639 189,335.5C 184.388,336.773 180.555,339.273 177.5,343C 176.099,343.41 174.766,343.91 173.5,344.5C 173.167,343.833 172.833,343.167 172.5,342.5C 173.583,342.461 174.583,342.127 175.5,341.5C 178.098,338.847 180.764,336.18 183.5,333.5C 184.167,333.833 184.833,334.167 185.5,334.5C 189.641,331.495 194.308,329.661 199.5,329C 201.825,326.991 204.325,325.158 207,323.5C 207.414,323.957 207.914,324.291 208.5,324.5C 213.975,321.69 219.641,319.356 225.5,317.5 Z"/></g>
<g><path style="opacity:1" fill="#21f4fe" d="M 213.5,342.5 C 210.603,342.788 207.77,343.455 205,344.5C 202.432,343.286 200.265,343.619 198.5,345.5C 197.264,344.754 195.93,344.421 194.5,344.5C 193.047,343.175 193.381,342.342 195.5,342C 193.249,341.252 191.916,339.752 191.5,337.5C 192.5,337.5 193.5,337.5 194.5,337.5C 196.426,336.758 198.259,335.758 200,334.5C 202.166,335.776 204.166,335.443 206,333.5C 210.776,335.09 215.276,334.59 219.5,332C 218.167,331.667 216.833,331.333 215.5,331C 219.058,328.391 223.058,327.225 227.5,327.5C 227.281,328.675 227.614,329.675 228.5,330.5C 231.438,329.425 234.438,329.259 237.5,330C 235.395,331.455 233.395,332.955 231.5,334.5C 226.029,335.588 220.695,337.088 215.5,339C 216.167,339.333 216.833,339.667 217.5,340C 215.563,340.122 214.23,340.955 213.5,342.5 Z"/></g>
<g><path style="opacity:1" fill="#1df0fe" d="M 191.5,337.5 C 191.916,339.752 193.249,341.252 195.5,342C 193.381,342.342 193.047,343.175 194.5,344.5C 193.153,343.829 191.986,343.829 191,344.5C 190.882,342.427 189.882,341.093 188,340.5C 185.081,341.557 182.581,343.224 180.5,345.5C 178.851,345.925 177.017,345.925 175,345.5C 174.667,346.5 174.333,347.5 174,348.5C 171.509,350.29 169.342,352.457 167.5,355C 168.791,356.292 168.791,357.458 167.5,358.5C 166.847,357.193 166.18,355.86 165.5,354.5C 167.358,352.476 169.025,350.309 170.5,348C 171.448,347.517 172.448,347.351 173.5,347.5C 173.5,346.5 173.5,345.5 173.5,344.5C 174.766,343.91 176.099,343.41 177.5,343C 180.555,339.273 184.388,336.773 189,335.5C 190.301,335.639 191.134,336.305 191.5,337.5 Z"/></g>
<g><path style="opacity:0.169" fill="#072b36" d="M 266.5,320.5 C 267.167,321.167 267.833,321.833 268.5,322.5C 229.963,339.128 190.963,354.795 151.5,369.5C 150.833,369.5 150.167,369.5 149.5,369.5C 149.5,369.167 149.5,368.833 149.5,368.5C 153.797,367.345 157.797,365.679 161.5,363.5C 177.341,356.889 193.341,350.889 209.5,345.5C 211.967,345.245 213.967,344.245 215.5,342.5C 227.719,338.058 239.719,333.058 251.5,327.5C 254.443,327.02 257.11,326.02 259.5,324.5C 262.621,324.264 264.954,322.931 266.5,320.5 Z"/></g>
<g><path style="opacity:0.086" fill="#0a2631" d="M 166.5,335.5 C 167.167,335.5 167.833,335.5 168.5,335.5C 160.833,345.5 153.167,355.5 145.5,365.5C 143.552,367.789 141.552,370.122 139.5,372.5C 139.833,372.833 140.167,373.167 140.5,373.5C 143.157,371.392 146.157,370.059 149.5,369.5C 150.167,369.5 150.833,369.5 151.5,369.5C 147.309,372.458 142.642,374.458 137.5,375.5C 137.372,373.345 137.872,371.345 139,369.5C 147.946,357.914 157.113,346.58 166.5,335.5 Z"/></g>
<g><path style="opacity:1" fill="#2df0fa" d="M 194.5,344.5 C 195.93,344.421 197.264,344.754 198.5,345.5C 200.265,343.619 202.432,343.286 205,344.5C 207.77,343.455 210.603,342.788 213.5,342.5C 211.924,343.143 210.59,344.143 209.5,345.5C 193.341,350.889 177.341,356.889 161.5,363.5C 161.167,363.5 160.833,363.5 160.5,363.5C 160.369,362.624 160.702,361.957 161.5,361.5C 163.604,360.481 165.604,359.481 167.5,358.5C 168.791,357.458 168.791,356.292 167.5,355C 169.342,352.457 171.509,350.29 174,348.5C 174.333,347.5 174.667,346.5 175,345.5C 177.017,345.925 178.851,345.925 180.5,345.5C 182.581,343.224 185.081,341.557 188,340.5C 189.882,341.093 190.882,342.427 191,344.5C 191.986,343.829 193.153,343.829 194.5,344.5 Z"/></g>
<g><path style="opacity:0.259" fill="#105666" d="M 213.5,342.5 C 214.167,342.5 214.833,342.5 215.5,342.5C 213.967,344.245 211.967,345.245 209.5,345.5C 210.59,344.143 211.924,343.143 213.5,342.5 Z"/></g>
<g><path style="opacity:1" fill="#1be8fc" d="M 172.5,340.5 C 172.5,341.167 172.5,341.833 172.5,342.5C 172.833,343.167 173.167,343.833 173.5,344.5C 173.5,345.5 173.5,346.5 173.5,347.5C 172.448,347.351 171.448,347.517 170.5,348C 169.025,350.309 167.358,352.476 165.5,354.5C 166.18,355.86 166.847,357.193 167.5,358.5C 165.604,359.481 163.604,360.481 161.5,361.5C 160.702,361.957 160.369,362.624 160.5,363.5C 159.596,362.791 159.263,361.791 159.5,360.5C 157.345,360.628 155.345,360.128 153.5,359C 155.167,356.667 156.833,354.333 158.5,352C 161.5,351.333 164,349.833 166,347.5C 166.333,347.833 166.667,348.167 167,348.5C 168.591,346.073 169.425,343.407 169.5,340.5C 170.5,340.5 171.5,340.5 172.5,340.5 Z"/></g>
<g><path style="opacity:1" fill="#26d8eb" d="M 168.5,335.5 C 168.833,335.5 169.167,335.5 169.5,335.5C 169.738,337.404 170.738,338.738 172.5,339.5C 172.5,339.833 172.5,340.167 172.5,340.5C 171.5,340.5 170.5,340.5 169.5,340.5C 169.425,343.407 168.591,346.073 167,348.5C 166.667,348.167 166.333,347.833 166,347.5C 164,349.833 161.5,351.333 158.5,352C 156.833,354.333 155.167,356.667 153.5,359C 155.345,360.128 157.345,360.628 159.5,360.5C 159.263,361.791 159.596,362.791 160.5,363.5C 160.833,363.5 161.167,363.5 161.5,363.5C 157.797,365.679 153.797,367.345 149.5,368.5C 148.167,368.5 146.833,368.5 145.5,368.5C 145.5,367.5 145.5,366.5 145.5,365.5C 153.167,355.5 160.833,345.5 168.5,335.5 Z"/></g>
<g><path style="opacity:0.808" fill="#4fc0d1" d="M 145.5,365.5 C 145.5,366.5 145.5,367.5 145.5,368.5C 146.833,368.5 148.167,368.5 149.5,368.5C 149.5,368.833 149.5,369.167 149.5,369.5C 146.157,370.059 143.157,371.392 140.5,373.5C 140.167,373.167 139.833,372.833 139.5,372.5C 141.552,370.122 143.552,367.789 145.5,365.5 Z"/></g>
</svg>
